# xmcd
#
# Track frame offsets:
#	150
#	16038
#	34459
#	46551
#	60259
#	75138
#	88378
#	105823
#	120272
#	133032
#	147564
#	158549
#
# Disc length: 2308 seconds
#
# Revision: 0
# Processed by: cddbd v1.5.2PL0 Copyright (c) Steve Scherf et al.
# Submitted via: EZCDAudioConverter 7.1.5.1
#
DISCID=8009020c
DTITLE=邓丽君 - 甜蜜蜜
DYEAR=1979
DGENRE=
TTITLE0=甜蜜蜜
TTITLE1=你在我梦里
TTITLE2=寄语多情人
TTITLE3=挥别
TTITLE4=遗忘
TTITLE5=梦向何处寻
TTITLE6=难忘的一天
TTITLE7=爱在我心中
TTITLE8=翠湖寒
TTITLE9=古树下
TTITLE10=野生花
TTITLE11=阵阵春风柔
EXTD=
EXTT0=
EXTT1=
EXTT2=
EXTT3=
EXTT4=
EXTT5=
EXTT6=
EXTT7=
EXTT8=
EXTT9=
EXTT10=
EXTT11=
PLAYORDER=
